<?xml version="1.0" encoding="UTF-8"?>
<svg xmlns="http://www.w3.org/2000/svg" fill="none" viewBox="0 0 512 512">
  <circle cx="250.311" cy="250.311" r="238.933" fill="white"></circle>
  <path fill-rule="evenodd" clip-rule="evenodd" d="M113.774 43.1438C155.873 15.0141 205.368 8.44923e-07 256 8.44923e-07C289.619 -0.00273058 322.91 6.61705 353.97 19.4813C385.031 32.3455 413.253 51.2022 437.025 74.9745C460.798 98.7469 479.655 126.969 492.519 158.03C505.383 189.09 512.003 222.381 512 256C512 306.632 496.986 356.127 468.856 398.226C440.727 440.325 400.745 473.137 353.967 492.513C307.189 511.889 255.716 516.959 206.057 507.081C156.398 497.203 110.783 472.822 74.9807 437.019C39.1785 401.217 14.7969 355.602 4.91909 305.943C-4.95872 256.284 0.110899 204.811 19.4869 158.033C38.863 111.255 71.6751 71.2734 113.774 43.1438ZM307.196 422.568C357.476 422.568 384.52 392.696 384.52 340.439L384.437 170.583C384.437 118.327 357.56 88.4537 307.321 88.4537C285.332 88.4537 268.19 94.2369 255.314 105.096C242.478 94.2161 225.337 88.4537 203.306 88.4537C153.068 88.4537 126.565 118.327 126.565 170.583V230.308C126.565 278.384 145.058 304.97 182.732 304.97C202.412 304.97 218.097 304.387 230.579 292.259V326.875L229.976 335.779C229.976 367.046 219.865 375.908 201.725 375.908C185.437 375.908 176.492 367.046 176.492 343.705V331.015H128.645V340.439C128.645 392.696 153.151 422.568 203.39 422.568C226.294 422.568 242.478 416.973 255.189 406.197C268.024 416.91 285.332 422.568 307.196 422.568ZM307.547 135.117C291.258 135.117 282.583 144 282.583 167.32V343.707C282.583 367.048 291.258 375.91 307.547 375.91C323.835 375.91 332.51 367.048 332.51 343.707V167.32C332.51 144 323.815 135.117 307.547 135.117ZM203.533 135.589C187.244 135.589 176.489 143.91 176.489 167.313V226.102C176.489 249.443 187.244 258.305 203.533 258.305C219.821 258.305 230.576 249.443 230.576 226.102V167.313C230.576 143.993 219.8 135.589 203.533 135.589Z" fill="#202020"></path>
</svg>
